<svg version="1.1" viewBox="0.0 0.0 960.0 540.0" fill="none" stroke="none" stroke-linecap="square" stroke-miterlimit="10" xmlns:xlink="http://www.w3.org/1999/xlink" xmlns="http://www.w3.org/2000/svg"><clipPath id="p1.0"><path d="m0 0l960.0 0l0 540.0l-960.0 0l0 -540.0z" clip-rule="nonzero"/></clipPath><g clip-path="url(#p1.0)"><path fill="#202729" d="m0 0l960.0 0l0 540.0l-960.0 0z" fill-rule="evenodd"/><path fill="#000000" fill-opacity="0.0" d="m0 314.75906l959.9622 0.03778076" fill-rule="evenodd"/><path stroke="#63d297" stroke-width="2.0026246719160103" stroke-linejoin="round" stroke-linecap="butt" d="m0 314.75906l959.9622 0.03778076" fill-rule="evenodd"/><path fill="#000000" fill-opacity="0.0" d="m53.593155 132.01837l889.48035 0l0 166.74017l-889.48035 0z" fill-rule="evenodd"/><path fill="#ffffff" d="m67.374405 276.51053l0 -40.90625l13.984375 0q9.328125 0 15.140625 5.796875q5.828125 5.796875 5.828125 14.6875q0 8.953125 -5.859375 14.6875q-5.84375 5.734375 -15.109375 5.734375l-13.984375 0zm13.984375 -4.53125q7.0 0 11.34375 -4.390625q4.359375 -4.390625 4.359375 -11.5q0 -7.109375 -4.296875 -11.53125q-4.296875 -4.421875 -11.40625 -4.421875l-8.890625 0l0 31.84375l8.890625 0zm42.132843 5.265625q-6.6875 0 -10.890625 -4.34375q-4.203125 -4.359375 -4.203125 -11.234375q0 -6.5625 4.171875 -11.03125q4.171875 -4.484375 10.4375 -4.484375q6.375 0 10.296875 4.421875q3.921875 4.40625 3.921875 11.46875l0 1.15625l-23.96875 0q0.234375 4.546875 3.265625 7.40625q3.046875 2.84375 7.40625 2.84375q5.390625 0 9.125 -3.75l2.21875 3.015625q-4.546875 4.53125 -11.78125 4.53125zm9.203125 -17.421875q0 -4.109375 -2.703125 -6.984375q-2.703125 -2.890625 -7.046875 -2.890625q-4.109375 0 -6.84375 2.890625q-2.734375 2.875 -2.84375 6.984375l19.4375 0zm26.559006 17.421875q-6.328125 0 -10.0 -5.21875l0 15.765625l-4.609375 0l0 -40.90625l4.609375 0l0 4.421875q1.59375 -2.265625 4.21875 -3.703125q2.640625 -1.453125 5.78125 -1.453125q5.9375 0 9.546875 4.171875q3.625 4.171875 3.625 11.34375q0 7.109375 -3.59375 11.34375q-3.578125 4.234375 -9.578125 4.234375zm-1.171875 -4.109375q4.296875 0 6.890625 -3.125q2.609375 -3.125 2.609375 -8.34375q0 -5.09375 -2.578125 -8.25q-2.5625 -3.15625 -6.921875 -3.15625q-2.765625 0 -5.1875 1.390625q-2.421875 1.375 -3.640625 3.328125l0 13.375q1.21875 1.96875 3.640625 3.375q2.421875 1.40625 5.1875 1.40625zm21.642212 3.375l0 -40.90625l4.609375 0l0 40.90625l-4.609375 0zm26.751968 0.734375q-6.453125 0 -10.5625 -4.375q-4.109375 -4.390625 -4.109375 -11.203125q0 -6.859375 4.109375 -11.1875q4.109375 -4.328125 10.5625 -4.328125q6.4375 0 10.546875 4.328125q4.109375 4.328125 4.109375 11.1875q0 6.8125 -4.109375 11.203125q-4.109375 4.375 -10.546875 4.375zm0 -4.109375q4.28125 0 7.046875 -3.21875q2.765625 -3.21875 2.765625 -8.25q0 -4.96875 -2.765625 -8.1875q-2.765625 -3.21875 -7.046875 -3.21875q-4.296875 0 -7.09375 3.1875q-2.78125 3.1875 -2.78125 8.21875q0 5.09375 2.75 8.28125q2.765625 3.1875 7.125 3.1875zm21.220337 10.796875q0.96875 0.484375 2.5 0.484375q1.546875 0 2.578125 -0.640625q1.046875 -0.640625 1.84375 -2.484375l1.96875 -4.46875l-12.390625 -29.9375l4.96875 0l9.875 24.296875l9.8125 -24.296875l5.015625 0l-14.828125 35.640625q-2.453125 5.875 -8.71875 6.0q-1.78125 0 -3.375 -0.421875l0.75 -4.171875zm66.34221 -6.6875q-9.015625 0 -15.03125 -5.9375q-6.0 -5.953125 -6.0 -15.21875q0 -9.265625 6.0 -15.203125q6.015625 -5.953125 15.03125 -5.953125q9.765625 0 15.515625 8.09375l-4.28125 2.390625q-1.78125 -2.578125 -4.765625 -4.265625q-2.96875 -1.6875 -6.46875 -1.6875q-6.796875 0 -11.28125 4.734375q-4.46875 4.71875 -4.46875 11.890625q0 7.234375 4.4375 11.9375q4.453125 4.6875 11.3125 4.6875q3.5 0 6.46875 -1.65625q2.984375 -1.65625 4.765625 -4.296875l4.34375 2.390625q-5.9375 8.09375 -15.578125 8.09375zm34.84848 0q-6.453125 0 -10.5625 -4.375q-4.109375 -4.390625 -4.109375 -11.203125q0 -6.859375 4.109375 -11.1875q4.109375 -4.328125 10.5625 -4.328125q6.4375 0 10.546875 4.328125q4.109375 4.328125 4.109375 11.1875q0 6.8125 -4.109375 11.203125q-4.109375 4.375 -10.546875 4.375zm0 -4.109375q4.28125 0 7.046875 -3.21875q2.765625 -3.21875 2.765625 -8.25q0 -4.96875 -2.765625 -8.1875q-2.765625 -3.21875 -7.046875 -3.21875q-4.296875 0 -7.09375 3.1875q-2.78125 3.1875 -2.78125 8.21875q0 5.09375 2.75 8.28125q2.765625 3.1875 7.125 3.1875zm43.595337 3.375l0 -4.421875q-1.65625 2.28125 -4.265625 3.71875q-2.59375 1.4375 -5.734375 1.4375q-5.9375 0 -9.5625 -4.234375q-3.625 -4.234375 -3.625 -11.28125q0 -7.109375 3.65625 -11.34375q3.65625 -4.234375 9.53125 -4.234375q3.015625 0 5.609375 1.390625q2.609375 1.375 4.390625 3.828125l0 -15.765625l4.609375 0l0 40.90625l-4.609375 0zm-8.890625 -3.375q2.765625 0 5.21875 -1.34375q2.453125 -1.359375 3.671875 -3.3125l0 -13.4375q-1.21875 -1.953125 -3.671875 -3.359375q-2.453125 -1.421875 -5.21875 -1.421875q-4.296875 0 -6.90625 3.125q-2.59375 3.125 -2.59375 8.34375q0 5.09375 2.5625 8.25q2.578125 3.15625 6.9375 3.15625zm36.060577 4.109375q-6.6875 0 -10.890625 -4.34375q-4.203125 -4.359375 -4.203125 -11.234375q0 -6.5625 4.171875 -11.03125q4.171875 -4.484375 10.4375 -4.484375q6.375 0 10.296875 4.421875q3.921875 4.40625 3.921875 11.46875l0 1.15625l-23.96875 0q0.234375 4.546875 3.265625 7.40625q3.046875 2.84375 7.40625 2.84375q5.390625 0 9.125 -3.75l2.21875 3.015625q-4.546875 4.53125 -11.78125 4.53125zm9.203125 -17.421875q0 -4.109375 -2.703125 -6.984375q-2.703125 -2.890625 -7.046875 -2.890625q-4.109375 0 -6.84375 2.890625q-2.734375 2.875 -2.84375 6.984375l19.4375 0zm27.959778 16.6875l0 -40.90625l26.796875 0l0 4.53125l-21.703125 0l0 13.1875l21.28125 0l0 4.546875l-21.28125 0l0 18.640625l-5.09375 0zm46.496124 0.734375q-6.453125 0 -10.5625 -4.375q-4.109375 -4.390625 -4.109375 -11.203125q0 -6.859375 4.109375 -11.1875q4.109375 -4.328125 10.5625 -4.328125q6.4375 0 10.546875 4.328125q4.109375 4.328125 4.109375 11.1875q0 6.8125 -4.109375 11.203125q-4.109375 4.375 -10.546875 4.375zm0 -4.109375q4.28125 0 7.046875 -3.21875q2.765625 -3.21875 2.765625 -8.25q0 -4.96875 -2.765625 -8.1875q-2.765625 -3.21875 -7.046875 -3.21875q-4.296875 0 -7.09375 3.1875q-2.78125 3.1875 -2.78125 8.21875q0 5.09375 2.75 8.28125q2.765625 3.1875 7.125 3.1875zm22.126587 3.375l0 -29.625l4.609375 0l0 4.78125q4.109375 -5.390625 9.875 -5.390625l0 4.71875l-1.84375 -0.1875q-2.09375 0 -4.609375 1.515625q-2.5 1.5 -3.421875 3.21875l0 20.96875l-4.609375 0zm36.248474 0l0 -40.90625l16.4375 0q5.828125 0 9.312439 3.5q3.5 3.484375 3.5 8.828125q0 5.390625 -3.5625 8.859375q-3.546814 3.46875 -9.249939 3.46875l-11.34375 0l0 16.25l-5.09375 0zm15.828125 -20.796875q3.671875 0 5.90625 -2.140625q2.249939 -2.140625 2.249939 -5.640625q0 -3.5 -2.249939 -5.640625q-2.234375 -2.15625 -5.90625 -2.15625l-10.734375 0l0 15.578125l10.734375 0zm19.983948 20.796875l0 -29.625l4.609375 0l0 4.78125q4.109375 -5.390625 9.875 -5.390625l0 4.71875l-1.84375 -0.1875q-2.09375 0 -4.609375 1.515625q-2.5 1.5 -3.421875 3.21875l0 20.96875l-4.609375 0zm33.191467 0.734375q-6.453125 0 -10.5625 -4.375q-4.109375 -4.390625 -4.109375 -11.203125q0 -6.859375 4.109375 -11.1875q4.109375 -4.328125 10.5625 -4.328125q6.4375 0 10.546875 4.328125q4.109375 4.328125 4.109375 11.1875q0 6.8125 -4.109375 11.203125q-4.109375 4.375 -10.546875 4.375zm0 -4.109375q4.28125 0 7.046875 -3.21875q2.765625 -3.21875 2.765625 -8.25q0 -4.96875 -2.765625 -8.1875q-2.765625 -3.21875 -7.046875 -3.21875q-4.296875 0 -7.09375 3.1875q-2.78125 3.1875 -2.78125 8.21875q0 5.09375 2.75 8.28125q2.765625 3.1875 7.125 3.1875zm43.595337 3.375l0 -4.421875q-1.65625 2.28125 -4.265625 3.71875q-2.59375 1.4375 -5.734375 1.4375q-5.9375 0 -9.5625 -4.234375q-3.625 -4.234375 -3.625 -11.28125q0 -7.109375 3.65625 -11.34375q3.65625 -4.234375 9.53125 -4.234375q3.015625 0 5.609375 1.390625q2.609375 1.375 4.390625 3.828125l0 -15.765625l4.609375 0l0 40.90625l-4.609375 0zm-8.890625 -3.375q2.765625 0 5.21875 -1.34375q2.453125 -1.359375 3.671875 -3.3125l0 -13.4375q-1.21875 -1.953125 -3.671875 -3.359375q-2.453125 -1.421875 -5.21875 -1.421875q-4.296875 0 -6.90625 3.125q-2.59375 3.125 -2.59375 8.34375q0 5.09375 2.5625 8.25q2.578125 3.15625 6.9375 3.15625zm42.685608 3.375l0 -4.171875q-1.71875 1.96875 -4.484375 3.4375q-2.75 1.46875 -6.0625 1.46875q-9.453125 0 -9.453125 -9.4375l0 -20.921875l4.609375 0l0 19.5q0 3.5 1.59375 5.125q1.59375 1.625 5.03125 1.625q2.6875 0 5.078125 -1.34375q2.40625 -1.359375 3.6875 -3.125l0 -21.78125l4.59375 0l0 29.625l-4.59375 0zm26.85431 0.734375q-6.5 0 -10.640625 -4.40625q-4.140625 -4.421875 -4.140625 -11.171875q0 -6.6875 4.140625 -11.09375q4.140625 -4.421875 10.640625 -4.421875q6.875 0 10.859375 5.15625l-3.0625 2.8125q-2.828125 -3.859375 -7.546875 -3.859375q-4.53125 0 -7.390625 3.15625q-2.84375 3.15625 -2.84375 8.25q0 5.15625 2.8125 8.3125q2.828125 3.15625 7.421875 3.15625q4.65625 0 7.546875 -3.859375l3.0625 2.8125q-3.984375 5.15625 -10.859375 5.15625zm24.779358 0q-6.5625 0 -6.5625 -6.921875l0 -19.390625l-4.90625 0l0 -4.046875l4.90625 0l0 -8.09375l4.609375 0l0 8.09375l6.0 0l0 4.046875l-6.0 0l0 18.40625q0 1.65625 0.734375 2.734375q0.734375 1.0625 2.265625 1.0625q1.90625 0 3.125 -1.21875l1.34375 3.421875q-1.890625 1.90625 -5.515625 1.90625zm12.827393 -34.59375q-1.234375 0 -2.15625 -0.875q-0.921875 -0.890625 -0.921875 -2.1875q0 -1.28125 0.921875 -2.203125q0.921875 -0.921875 2.15625 -0.921875q1.28125 0 2.203125 0.921875q0.921875 0.921875 0.921875 2.203125q0 1.296875 -0.921875 2.1875q-0.921875 0.875 -2.203125 0.875zm-2.28125 33.859375l0 -29.625l4.609375 0l0 29.625l-4.609375 0zm26.751953 0.734375q-6.453125 0 -10.5625 -4.375q-4.109375 -4.390625 -4.109375 -11.203125q0 -6.859375 4.109375 -11.1875q4.109375 -4.328125 10.5625 -4.328125q6.4375 0 10.546875 4.328125q4.109375 4.328125 4.109375 11.1875q0 6.8125 -4.109375 11.203125q-4.109375 4.375 -10.546875 4.375zm0 -4.109375q4.28125 0 7.046875 -3.21875q2.765625 -3.21875 2.765625 -8.25q0 -4.96875 -2.765625 -8.1875q-2.765625 -3.21875 -7.046875 -3.21875q-4.296875 0 -7.09375 3.1875q-2.78125 3.1875 -2.78125 8.21875q0 5.09375 2.75 8.28125q2.765625 3.1875 7.125 3.1875zm42.126587 3.375l0 -19.375q0 -3.9375 -1.8125 -5.40625q-1.8125 -1.46875 -4.8125 -1.46875q-2.578125 0 -5.0625 1.390625q-2.484375 1.375 -3.703125 3.203125l0 21.65625l-4.609375 0l0 -29.625l4.609375 0l0 4.296875q1.890625 -2.203125 4.6875 -3.609375q2.796875 -1.421875 5.859375 -1.421875q9.4375 0 9.4375 9.5625l0 20.796875l-4.59375 0z" fill-rule="nonzero"/><path fill="#000000" fill-opacity="0.0" d="m53.5937 334.11023l852.77484 0l0 66.10394l-852.77484 0z" fill-rule="evenodd"/><path fill="#ffffff" d="m75.20308 374.22086q-4.703125 0 -7.84375 -3.109375q-3.140625 -3.109375 -3.140625 -7.9375q0 -4.828125 3.140625 -7.9375q3.140625 -3.109375 7.84375 -3.109375q5.09375 0 8.09375 4.234375l-2.234375 1.25q-0.9375 -1.34375 -2.484375 -2.21875q-1.546875 -0.890625 -3.375 -0.890625q-3.546875 0 -5.890625 2.46875q-2.328125 2.453125 -2.328125 6.203125q0 3.78125 2.3125 6.234375q2.328125 2.4375 5.90625 2.4375q1.828125 0 3.375 -0.859375q1.546875 -0.875 2.484375 -2.25l2.265625 1.25q-3.109375 4.234375 -8.125 4.234375zm21.085175 -0.390625l0 -1.765625q-1.953125 2.15625 -5.125 2.15625q-2.328125 0 -3.875 -1.46875q-1.53125 -1.484375 -1.53125 -3.65625q0 -2.234375 1.515625 -3.65625q1.53125 -1.4375 3.890625 -1.4375q3.328125 0 5.125 2.109375l0 -2.78125q0 -1.5625 -1.109375 -2.40625q-1.09375 -0.859375 -2.796875 -0.859375q-2.71875 0 -4.734375 2.15625l-1.125 -1.671875q2.46875 -2.5625 6.1875 -2.5625q2.84375 0 4.40625 1.375q1.578125 1.375 1.578125 3.84375l0 10.625l-2.40625 0zm-4.25 -1.34375q2.84375 0 4.25 -1.921875l0 -2.90625q-1.40625 -1.921875 -4.25 -1.921875q-1.703125 0 -2.765625 0.953125q-1.046875 0.9375 -1.046875 2.4375q0 1.46875 1.046875 2.421875q1.0625 0.9375 2.765625 0.9375zm19.067154 1.734375q-3.296875 0 -5.21875 -2.734375l0 8.234375l-2.390625 0l0 -21.34375l2.390625 0l0 2.296875q0.828125 -1.1875 2.203125 -1.9375q1.390625 -0.75 3.015625 -0.75q3.109375 0 4.984375 2.1875q1.890625 2.171875 1.890625 5.90625q0 3.71875 -1.875 5.9375q-1.859375 2.203125 -5.0 2.203125zm-0.609375 -2.15625q2.234375 0 3.59375 -1.625q1.375 -1.640625 1.375 -4.359375q0 -2.65625 -1.34375 -4.296875q-1.34375 -1.65625 -3.625 -1.65625q-1.4375 0 -2.703125 0.734375q-1.265625 0.71875 -1.90625 1.734375l0 6.984375q0.640625 1.015625 1.90625 1.75q1.265625 0.734375 2.703125 0.734375zm16.194656 2.15625q-3.9375 0 -6.234375 -2.4375l1.234375 -1.734375q0.78125 0.90625 2.140625 1.5625q1.359375 0.65625 2.953125 0.65625q1.796875 0 2.71875 -0.75q0.9375 -0.765625 0.9375 -1.90625q0 -1.03125 -1.015625 -1.625q-1.0 -0.59375 -3.765625 -1.234375q-2.328125 -0.46875 -3.5625 -1.5q-1.234375 -1.046875 -1.234375 -2.8125q0 -1.953125 1.5625 -3.203125q1.578125 -1.25 4.203125 -1.25q3.484375 0 5.71875 2.25l-1.109375 1.65625q-0.703125 -0.828125 -1.90625 -1.390625q-1.203125 -0.5625 -2.703125 -0.5625q-1.609375 0 -2.515625 0.703125q-0.90625 0.703125 -0.90625 1.734375q0 0.921875 1.015625 1.46875q1.03125 0.546875 3.78125 1.125q2.328125 0.546875 3.546875 1.65625q1.21875 1.09375 1.21875 2.921875q0 2.140625 -1.671875 3.40625q-1.65625 1.265625 -4.40625 1.265625zm13.880035 0q-3.421875 0 -3.421875 -3.625l0 -10.109375l-2.5625 0l0 -2.109375l2.5625 0l0 -4.234375l2.40625 0l0 4.234375l3.140625 0l0 2.109375l-3.140625 0l0 9.59375q0 0.875 0.375 1.4375q0.390625 0.546875 1.1875 0.546875q1.0 0 1.640625 -0.640625l0.703125 1.796875q-1.0 1.0 -2.890625 1.0zm12.267395 0q-3.359375 0 -5.515625 -2.28125q-2.140625 -2.296875 -2.140625 -5.859375q0 -3.578125 2.140625 -5.828125q2.15625 -2.265625 5.515625 -2.265625q3.359375 0 5.5 2.265625q2.140625 2.25 2.140625 5.828125q0 3.5625 -2.140625 5.859375q-2.140625 2.28125 -5.5 2.28125zm0 -2.15625q2.234375 0 3.671875 -1.671875q1.4375 -1.6875 1.4375 -4.3125q0 -2.59375 -1.4375 -4.265625q-1.4375 -1.6875 -3.671875 -1.6875q-2.25 0 -3.703125 1.671875q-1.453125 1.65625 -1.453125 4.28125q0 2.65625 1.4375 4.328125q1.4375 1.65625 3.71875 1.65625zm21.975906 1.765625l0 -10.109375q0 -2.046875 -0.953125 -2.8125q-0.9375 -0.78125 -2.5 -0.78125q-1.34375 0 -2.640625 0.734375q-1.296875 0.71875 -1.9375 1.671875l0 11.296875l-2.390625 0l0 -15.453125l2.390625 0l0 2.234375q1.0 -1.15625 2.453125 -1.890625q1.453125 -0.734375 3.046875 -0.734375q4.9375 0 4.9375 5.0l0 10.84375l-2.40625 0zm14.178909 0.390625q-3.484375 0 -5.6875 -2.265625q-2.1875 -2.28125 -2.1875 -5.875q0 -3.421875 2.171875 -5.75q2.1875 -2.34375 5.453125 -2.34375q3.328125 0 5.375 2.3125q2.046875 2.296875 2.046875 5.984375l0 0.609375l-12.515625 0q0.125 2.359375 1.703125 3.859375q1.59375 1.484375 3.859375 1.484375q2.828125 0 4.78125 -1.953125l1.140625 1.5625q-2.359375 2.375 -6.140625 2.375zm4.796875 -9.09375q0 -2.140625 -1.40625 -3.640625q-1.40625 -1.515625 -3.671875 -1.515625q-2.15625 0 -3.578125 1.515625q-1.421875 1.5 -1.484375 3.640625l10.140625 0zm21.506424 9.09375q-5.15625 0 -8.1875 -3.40625l1.5625 -2.015625q1.3125 1.484375 3.0625 2.265625q1.765625 0.78125 3.65625 0.78125q2.3125 0 3.671875 -1.015625q1.359375 -1.03125 1.359375 -2.65625q0 -2.53125 -3.96875 -3.625q-4.703125 -1.25 -6.0 -1.984375q-1.296875 -0.734375 -1.984375 -1.828125q-0.6875 -1.109375 -0.6875 -2.65625q0 -2.546875 2.0625 -4.21875q2.0625 -1.6875 5.265625 -1.6875q4.796875 0 7.578125 2.96875l-1.59375 1.953125q-2.3125 -2.5625 -6.171875 -2.5625q-1.921875 0 -3.15625 0.9375q-1.234375 0.921875 -1.234375 2.453125q0 1.125 1.015625 1.90625q1.03125 0.78125 2.984375 1.265625q4.546875 1.25 5.875 2.046875q1.328125 0.796875 2.046875 1.96875q0.71875 1.171875 0.71875 2.828125q0 2.953125 -2.15625 4.625q-2.140625 1.65625 -5.71875 1.65625zm15.098663 0q-3.421875 0 -3.421875 -3.625l0 -10.109375l-2.5625 0l0 -2.109375l2.5625 0l0 -4.234375l2.40625 0l0 4.234375l3.140625 0l0 2.109375l-3.140625 0l0 9.59375q0 0.875 0.375 1.4375q0.390625 0.546875 1.1875 0.546875q1.0 0 1.640625 -0.640625l0.703125 1.796875q-1.0 1.0 -2.890625 1.0zm12.486145 0q-3.484375 0 -5.6875 -2.265625q-2.1875 -2.28125 -2.1875 -5.875q0 -3.421875 2.171875 -5.75q2.1875 -2.34375 5.453125 -2.34375q3.328125 0 5.375 2.3125q2.046875 2.296875 2.046875 5.984375l0 0.609375l-12.515625 0q0.125 2.359375 1.703125 3.859375q1.59375 1.484375 3.859375 1.484375q2.828125 0 4.78125 -1.953125l1.140625 1.5625q-2.359375 2.375 -6.140625 2.375zm4.796875 -9.09375q0 -2.140625 -1.40625 -3.640625q-1.40625 -1.515625 -3.671875 -1.515625q-2.15625 0 -3.578125 1.515625q-1.421875 1.5 -1.484375 3.640625l10.140625 0zm13.859772 9.09375q-3.296875 0 -5.21875 -2.734375l0 8.234375l-2.3906097 0l0 -21.34375l2.3906097 0l0 2.296875q0.828125 -1.1875 2.203125 -1.9375q1.390625 -0.75 3.015625 -0.75q3.109375 0 4.984375 2.1875q1.890625 2.171875 1.890625 5.90625q0 3.71875 -1.875 5.9375q-1.859375 2.203125 -5.0 2.203125zm-0.609375 -2.15625q2.234375 0 3.59375 -1.625q1.375 -1.640625 1.375 -4.359375q0 -2.65625 -1.34375 -4.296875q-1.34375 -1.65625 -3.625 -1.65625q-1.4375 0 -2.703125 0.734375q-1.265625 0.71875 -1.90625 1.734375l0 6.984375q0.640625 1.015625 1.90625 1.75q1.265625 0.734375 2.703125 0.734375zm25.763184 2.125q-3.65625 0 -5.921875 -2.5625l1.34375 -1.984375q0.828125 0.953125 1.859375 1.5625q1.046875 0.609375 2.71875 0.609375q2.78125 0 4.390625 -2.296875q1.625 -2.3125 1.625 -6.0625l0 -0.4375l-0.03125 -0.421875q-0.9375 1.4375 -2.65625 2.390625q-1.703125 0.9375 -3.359375 0.9375q-3.171875 0 -5.09375 -1.84375q-1.921875 -1.859375 -1.921875 -4.96875q0 -2.984375 2.078125 -4.984375q2.09375 -2.0 5.390625 -2.0q3.859375 0 6.046875 2.921875q2.203125 2.90625 2.203125 8.125q0 5.03125 -2.359375 8.03125q-2.34375 2.984375 -6.3125 2.984375zm0.578125 -10.5625q1.59375 0 3.03125 -0.859375q1.4375 -0.875 2.28125 -2.3125q-0.296875 -2.84375 -1.734375 -4.390625q-1.4375 -1.5625 -3.609375 -1.5625q-2.140625 0 -3.53125 1.328125q-1.375 1.328125 -1.375 3.1875q0 2.140625 1.328125 3.375q1.328125 1.234375 3.609375 1.234375z" fill-rule="nonzero"/></g></svg>